# xmcd
#
# Track frame offsets:
#	150
#	13010
#	30011
#	43293
#	56649
#	69428
#	81043
#	94044
#	110878
#	127153
#	142561
#	153835
#
# Disc length: 2248 seconds
#
# Revision: 1
# Processed by: cddbd v1.5.2PL0 Copyright (c) Steve Scherf et al.
# Submitted via: audiograbber 1.83.01
#
DISCID=9408c60c
DTITLE=Peter McCloskey - Choices
DYEAR=1900
DGENRE=
TTITLE0=Back In Ireland Long Ago
TTITLE1=Southern Dixie Flyer
TTITLE2=Yesterday Once More
TTITLE3=Sad Songs And Waltzes
TTITLE4=Sweet Memories
TTITLE5=Never Take Her Love
TTITLE6=Life's Merry-Go-Round
TTITLE7=Nora
TTITLE8=Ireland's Green Fields
TTITLE9=That's The Way It Was In '51
TTITLE10=This Is My Year (For Mexico)
TTITLE11=Choices
EXTD=
EXTT0=
EXTT1=
EXTT2=
EXTT3=
EXTT4=
EXTT5=
EXTT6=
EXTT7=
EXTT8=
EXTT9=
EXTT10=
EXTT11=
PLAYORDER=
